<?xml version="1.0" encoding="utf-8"?>
<!-- Generator: Adobe Illustrator 15.0.0, SVG Export Plug-In . SVG Version: 6.00 Build 0)  -->
<!DOCTYPE svg PUBLIC "-//W3C//DTD SVG 1.1//EN" "http://www.w3.org/Graphics/SVG/1.1/DTD/svg11.dtd">
<svg version="1.1" id="Layer_1" xmlns="http://www.w3.org/2000/svg" xmlns:xlink="http://www.w3.org/1999/xlink" x="0px" y="0px"
	 width="576px" height="576px" viewBox="0 0 576 576" enable-background="new 0 0 576 576" xml:space="preserve">
<path fill-rule="evenodd" clip-rule="evenodd" d="M398,139c-8.588,54.546-61.766,68.375-107,89
	c-44.253,20.178-96.83,51.28-95.298,112.07c31.186-4.014,78.911-16.203,122.831-52.071c0,0-47.398,52.807-115.693,76.245
	C189.491,387.762,179.359,414.494,169,441c6.258-0.742,12.64-1.359,20-1c0.123-26.877,9.783-44.217,18-63
	c12.869,7.008,31.116,8.6,48,7C365.7,373.509,405.903,262.661,398,139z"/>
</svg>
